<svg width="1151" height="776" viewBox="0 0 1151 776" fill="none" xmlns="http://www.w3.org/2000/svg">
<path d="M0.944802 752.535L16.6181 706.681C16.3501 706.234 13.6621 704.443 11.4235 703.01C10.6168 702.383 10.9755 701.219 11.9608 701.219H83.0715L78.7728 713.667C78.1461 715.37 76.7128 716.354 75.0115 716.354H28.1715C27.1861 716.354 26.8275 717.518 27.5448 718.145L32.3808 722.534L31.0368 726.206H61.6675L58.1741 736.235C57.5475 737.938 56.1128 738.923 54.4128 738.923H22.4395C21.4541 738.923 21.0955 739.998 21.7221 740.625L25.0368 743.67L23.2461 748.774H66.6821L62.2941 761.225C61.6675 763.014 60.4128 763.91 58.5315 763.91H9.0048C3.18347 763.91 -1.02586 758.089 0.944802 752.535Z" fill="black"/>
<path d="M106.897 748.774H134.661C135.467 748.774 136.093 748.415 136.452 747.611C146.841 716.532 146.572 716.355 145.856 716.355H110.568C109.584 716.355 109.225 717.519 109.941 718.144L114.599 722.356C106.001 748.595 106.181 748.774 106.897 748.774ZM84.1481 749.58L95.8814 715.459C98.7468 707.219 106.808 701.219 116.391 701.219H155.976C165.201 701.219 171.471 706.951 168.604 715.459C164.752 726.922 160.901 738.118 156.872 749.491C154.184 757.014 147.02 763.463 137.259 763.911L144.781 775.822H122.928C121.496 775.822 120.152 775.016 119.525 773.672L114.331 763.911H96.7774C87.1054 763.911 81.2828 757.64 84.1481 749.58Z" fill="black"/>
<path d="M176.667 749.67C178.549 743.938 180.429 738.655 182.221 733.282C185.355 724.146 188.758 713.308 191.177 706.682L185.625 703.011C184.638 702.383 185.175 701.219 186.161 701.219H214.373L208.999 716.891C205.863 725.488 202.461 735.79 200.311 741.968L194.669 746.983C193.953 747.611 194.311 748.774 195.297 748.774H227.447C228.433 748.774 228.971 748.416 229.239 747.611L244.374 703.907C245.001 702.115 246.255 701.219 248.137 701.219H266.406C265.69 703.638 261.39 715.996 257.361 727.37C254.943 734.178 252.435 741.43 249.659 749.67C246.703 757.91 239.986 763.911 230.314 763.911H189.295C179.982 763.911 173.623 758.179 176.667 749.67Z" fill="black"/>
<path d="M285.844 706.681C284.054 705.339 282.351 704.173 280.292 703.099C279.307 702.473 279.755 701.219 280.739 701.219H308.682L287.904 761.224C287.278 763.015 286.024 763.911 284.143 763.911H265.963C269.544 753.253 281.188 720.923 285.844 706.681Z" fill="black"/>
<path d="M339.761 718.145L344.867 722.714L341.82 731.49H368.779C369.675 731.49 370.211 731.131 370.48 730.415L374.957 717.518C374.957 717.429 375.048 717.339 374.957 717.07C374.868 716.623 374.511 716.354 373.972 716.354H340.477C339.492 716.354 339.135 717.518 339.761 718.145ZM329.193 706.681L323.909 703.01C323.103 702.383 323.461 701.219 324.447 701.219H384.093C394.303 701.219 399.407 708.205 396.721 715.458L391.079 731.67C388.481 739.282 380.78 745.999 370.748 745.999H336.716L331.521 761.225C330.895 763.014 329.641 763.91 327.76 763.91H309.58C313.161 753.879 324.177 721.997 329.193 706.681Z" fill="black"/>
<path d="M397.707 763.91C400.215 756.477 412.663 720.922 417.679 706.681L412.216 703.01C411.231 702.382 411.767 701.218 412.752 701.218H437.382L441.144 713.666C443.292 720.294 445.531 727.727 446.516 731.042C446.516 732.474 446.068 739.102 446.068 740.535C448.755 737.579 457.712 728.175 466.04 719.31C470.966 714.205 476.162 708.562 481.894 702.473C482.61 701.666 483.595 701.218 484.759 701.218H503.03C502.134 704.442 483.236 758.267 482.251 761.223C481.624 763.014 480.371 763.91 478.49 763.91H460.31L468.907 738.923L451.354 756.029C450.547 756.746 449.651 757.105 448.576 757.105H433.62L427.531 739.013L419.828 761.223C419.202 763.014 417.948 763.91 416.067 763.91H397.707Z" fill="black"/>
<path d="M504.646 752.535L520.318 706.681C520.051 706.234 517.363 704.443 515.125 703.01C514.319 702.383 514.677 701.219 515.662 701.219H586.771L582.474 713.667C581.847 715.37 580.414 716.354 578.711 716.354H531.873C530.887 716.354 530.53 717.518 531.246 718.145L536.082 722.534L534.738 726.206H565.369L561.875 736.235C561.249 737.938 559.814 738.923 558.114 738.923H526.141C525.155 738.923 524.798 739.998 525.423 740.625L528.738 743.67L526.946 748.774H570.383L565.995 761.225C565.369 763.014 564.114 763.91 562.233 763.91H512.707C506.885 763.91 502.675 758.089 504.646 752.535Z" fill="black"/>
<path d="M586.775 763.91C589.551 755.493 601.642 721.369 606.657 706.681L601.194 703.01C600.209 702.382 600.747 701.218 601.733 701.218H629.583L649.198 741.789L650.899 728.623L660.393 701.218H681.439L660.662 761.223C660.034 763.014 658.781 763.91 656.901 763.91H639.794C637.914 759.879 633.167 750.745 628.867 742.326C626.359 737.31 623.674 732.295 620.807 726.654C620.45 727.459 608.09 762.925 608.806 761.223C608.181 763.014 606.926 763.91 605.045 763.91H586.775Z" fill="black"/>
<path d="M689.953 701.219H762.137C761.152 704.174 758.913 710.175 757.751 713.667C757.123 715.459 755.869 716.355 753.988 716.355H731.597C730.612 716.355 730.255 717.519 730.971 718.144L736.433 723.16L723.268 761.224C722.643 763.015 721.388 763.911 719.507 763.911H701.237L717.805 716.355H691.653C691.833 715.728 695.327 707.667 695.593 706.682L689.504 703.099C688.52 702.472 688.968 701.219 689.953 701.219Z" fill="black"/>
<path d="M760.616 758.625C764.198 747.879 773.87 719.22 777.81 706.681L772.976 703.011C772.169 702.383 772.529 701.219 773.513 701.219H852.505L848.205 713.667C847.578 715.371 846.057 716.355 844.354 716.355H789.812C788.828 716.355 788.47 717.519 789.096 718.145L794.022 722.623C793.932 722.623 785.334 748.057 785.246 748.057C785.156 748.507 785.334 748.773 785.962 748.773H814.262C815.337 748.773 815.965 748.416 816.233 747.611L819.637 737.76H814.173C812.92 737.76 811.933 737.311 811.217 736.505L802.441 726.833C801.813 726.207 802.261 725.131 803.248 725.131H844.892C844.892 725.488 836.473 749.939 836.473 749.669C833.16 759.163 827.07 763.911 818.114 763.911H764.377C761.512 763.911 759.632 761.224 760.616 758.625Z" fill="black"/>
<path d="M884.57 718.145C885.644 719.13 886.987 720.115 887.972 721.102C888.599 721.729 889.138 722.086 889.764 722.714L887.614 728.893H915.378C916.363 728.893 916.9 728.534 917.17 727.727L917.438 726.922C917.708 726.474 917.796 725.758 918.066 724.951C918.692 723.43 919.14 721.638 919.766 720.115C920.036 719.13 920.394 718.325 920.662 717.518C921.02 716.713 920.752 716.354 919.766 716.354H885.286C884.302 716.354 883.943 717.518 884.57 718.145ZM854.119 763.91C858.418 751.014 869.792 719.221 874.092 706.681L868.718 703.01C867.911 702.383 868.268 701.219 869.344 701.219H929.798C939.111 701.219 945.291 707.039 942.426 715.458C937.678 729.519 937.142 733.639 930.066 739.102C923.886 743.849 916.274 743.133 914.84 743.401L923.976 757.821C925.678 760.417 923.798 763.91 920.662 763.91H903.735L892.719 743.401H882.598L876.42 761.225C875.792 763.014 874.539 763.91 872.658 763.91H854.119Z" fill="black"/>
<path d="M977.269 736.058H1007.45L1013.45 718.503C1013.99 717.071 1013.36 716.355 1011.57 716.355H979.418C978.433 716.355 978.074 717.519 978.791 718.144L982.373 721.368L977.269 736.058ZM966.251 706.772L960.79 703.011C959.983 702.383 960.342 701.219 961.327 701.219H1040.05C1037.18 709.459 1023.39 750.207 1019.81 761.224C1019.18 763.015 1017.93 763.911 1016.05 763.911H997.509L1003.06 748.774H972.879L968.581 761.224C967.955 763.015 966.701 763.911 964.819 763.911H946.549C950.131 752.894 962.311 718.952 966.251 706.772Z" fill="black"/>
<path d="M1044.89 763.91C1047.4 756.477 1059.85 720.922 1064.86 706.681L1059.4 703.01C1058.41 702.382 1058.95 701.218 1059.94 701.218H1084.57L1088.33 713.666C1090.48 720.294 1092.71 727.727 1093.7 731.042C1093.7 732.474 1093.25 739.102 1093.25 740.535C1095.94 737.579 1104.9 728.175 1113.23 719.31C1118.15 714.205 1123.35 708.562 1129.08 702.473C1129.79 701.666 1130.78 701.218 1131.94 701.218H1150.21C1149.32 704.442 1130.42 758.267 1129.43 761.223C1128.81 763.014 1127.55 763.91 1125.67 763.91H1107.49L1116.09 738.923L1098.54 756.029C1097.73 756.746 1096.83 757.105 1095.76 757.105H1080.8L1074.71 739.013L1067.01 761.223C1066.39 763.014 1065.13 763.91 1063.25 763.91H1044.89Z" fill="black"/>
<path d="M575.336 0.84605C724.239 0.84605 844.948 145.763 844.948 324.526C844.948 503.29 724.239 648.206 575.336 648.206C426.432 648.206 305.723 503.29 305.723 324.526C305.723 145.763 426.432 0.84605 575.336 0.84605Z" fill="#6750A4"/>
<path d="M575.336 31.5119V36.1785C607.552 36.1812 638.223 44.1759 666.196 58.6812C708.148 80.4346 744.015 116.895 769.388 162.951C794.759 209 809.617 264.612 809.616 324.525C809.621 404.409 783.193 476.647 740.68 528.768C719.427 554.831 694.165 575.864 666.196 590.371C638.223 604.876 607.552 612.871 575.336 612.873C543.12 612.871 512.449 604.876 484.476 590.371C442.524 568.616 406.656 532.155 381.285 486.1C355.913 440.049 341.055 384.437 341.056 324.525C341.051 244.641 367.479 172.404 409.992 120.283C431.245 94.2185 456.507 73.1866 484.476 58.6812C512.449 44.1745 543.12 36.1812 575.336 36.1785V31.5119V26.8452C541.568 26.8425 509.379 35.2465 480.179 50.3959C436.368 73.1225 399.268 110.972 373.111 158.447C346.953 205.928 331.724 263.068 331.723 324.525C331.728 406.468 358.789 480.737 402.759 534.667C424.745 561.628 450.973 583.507 480.179 598.655C509.379 613.804 541.568 622.208 575.336 622.207C609.104 622.208 641.292 613.804 670.493 598.655C714.304 575.928 751.404 538.079 777.561 490.603C803.719 443.123 818.947 385.983 818.949 324.525C818.944 242.583 791.883 168.313 747.913 114.384C725.927 87.4225 699.699 65.5439 670.493 50.3959C641.292 35.2465 609.104 26.8425 575.336 26.8452V31.5119Z" fill="white"/>
<path d="M935.789 347.926C936.041 340.632 930.761 334.526 917.682 327.166L894.894 253.872C895.802 251.179 895.922 248.192 895.041 245.419C895.041 245.419 845.374 91.2325 845.321 91.0725L833.108 50.7925C831.988 47.0992 829.082 44.7658 825.815 44.6592C825.094 44.6325 824.349 44.7259 823.601 44.9259L819.228 46.1392C817.228 39.8192 812.161 35.5525 806.202 35.3525C802.761 35.2325 799.309 36.5392 796.455 38.9925L758.761 71.5925C752.987 76.6058 750.828 85.2992 753.482 92.6859L762.736 118.646C760.122 130.432 747.894 185.286 746.388 192.046C745.416 192.273 744.469 192.686 743.589 193.286C741.589 194.659 740.136 196.873 739.561 199.419L730.428 239.952C730.388 240.099 730.349 240.246 730.321 240.392L724.894 264.472L717.176 281.872L705.601 202.553C705.136 199.339 703.227 196.699 700.535 195.553L630.869 165.939C629.962 165.552 629.001 165.339 628.016 165.326L558.642 163.992C557.988 163.979 557.335 164.046 556.707 164.192L497.416 178.072C494.029 178.859 491.374 181.779 490.628 185.513C490.122 188.033 479.627 240.366 473.815 281.046L459.922 269.779L466.109 251.872C469.601 247.966 470.856 242.006 468.922 236.672L468.642 235.926C466.722 230.539 462.055 227.006 456.775 226.939C455.761 226.926 454.749 227.046 453.734 227.299L453.509 227.352C453.268 227.219 453.029 227.086 452.789 226.952C451.176 226.126 449.469 225.686 447.696 225.672C446.509 225.659 445.336 225.832 444.214 226.179L437.829 224.099L439.416 205.832C439.856 200.819 436.734 196.233 432.229 195.259L253.642 156.686C253.094 156.566 252.536 156.499 251.988 156.499C249.749 156.459 247.576 157.313 245.896 158.926C243.816 160.939 242.749 163.912 242.988 166.992C243.336 171.432 243.509 184.699 240.229 192.779C235.416 204.619 215.961 247.032 215.776 247.459C214.562 250.099 214.562 253.246 215.789 255.979C217.002 258.712 219.309 260.752 222.029 261.526L262.776 272.992C263.229 273.126 263.681 273.206 264.149 273.259L309.628 278.406C310.442 278.526 314.642 279.152 319.416 279.926C323.002 280.459 326.896 281.099 329.708 281.579C332.536 282.086 345.589 283.752 368.428 286.539L380.294 289.419C381.362 295.352 384.029 302.099 391.014 302.459C391.149 302.472 391.336 302.472 391.482 302.472C391.988 302.472 392.482 302.432 392.961 302.366C400.829 311.232 412.401 324.499 418.708 331.739C418.654 333.419 418.961 335.112 419.601 336.686L407.029 343.992C403.681 345.952 401.601 349.686 401.601 353.739V358.619C401.601 360.712 402.136 362.659 403.082 364.326L399.321 376.646C393.562 374.512 385.601 372.699 375.122 372.726C369.309 372.739 363.149 373.326 356.789 374.472C352.574 375.232 349.509 379.112 349.536 383.659L349.589 390.432C349.616 394.844 352.601 398.552 356.628 399.419C337.896 409.404 325.616 431.726 325.922 458.686C326.336 494.939 349.336 521.606 379.256 521.112C408.988 520.619 431.456 493.472 431.681 457.592C431.696 455.872 431.642 454.152 431.548 452.458H431.842C433.776 452.446 435.616 451.726 437.094 450.499L440.961 450.458C443.442 450.432 445.802 449.272 447.428 447.272C449.068 445.272 449.802 442.632 449.469 440.046L447.428 424.632L452.348 424.086C457.029 423.564 460.496 419.112 460.094 414.124L459.842 410.966L479.136 407.552L479.734 413.819C479.749 413.939 479.789 414.046 479.802 414.166C479.642 414.766 479.482 415.366 479.321 415.979C477.294 424.152 476.214 432.619 476.094 441.139C475.374 494.006 511.374 534.099 557.642 533.259C562.229 533.178 566.789 532.686 571.229 531.819C571.427 531.779 571.601 531.712 571.789 531.659L571.642 536.646C571.496 541.404 575.029 545.178 579.536 545.099L598.736 544.726C599.589 544.712 600.441 544.552 601.256 544.259L611.229 540.672C614.761 539.404 617.176 535.819 617.122 531.939L617.016 524.819C617.469 525.779 617.934 526.606 618.388 527.312L618.349 528.432C618.214 531.912 620.054 534.872 622.802 536.178L622.736 538.006C622.548 542.738 626.016 546.486 630.469 546.404L643.896 546.139C644.988 546.112 646.082 545.859 647.108 545.379L660.816 538.952C663.816 537.552 665.856 534.432 666.002 531.018L666.229 526.018C668.069 524.086 669.069 521.351 668.774 518.606C668.642 517.351 668.256 516.192 667.669 515.192C671.309 515.886 675.056 516.206 678.896 516.152C699.268 515.819 718.135 504.379 730.695 485.139C748.494 491.952 776.895 498.511 790.427 501.458C791.589 504.246 794.135 505.992 797.082 505.939L836.735 505.312C841.029 505.246 844.789 501.392 845.136 496.712L845.202 495.738C845.494 491.939 843.441 488.738 840.374 487.699L840.909 480.499C841.107 477.779 840.122 475.244 838.255 473.659L832.494 468.779C831.202 467.684 829.616 467.139 827.976 467.152C826.881 467.166 825.761 467.432 824.695 467.952L823.522 468.526C821.828 462.124 818.881 460.432 816.469 459.779C815.601 459.552 814.707 459.446 813.789 459.446C812.054 459.458 810.282 459.911 808.469 460.779C802.122 457.672 792.334 452.886 785.842 449.738C785.682 449.071 785.455 448.446 785.161 447.859C788.987 440.432 791.469 432.326 792.575 423.659C802.482 431.859 817.108 436.018 835.774 435.859C844.189 435.791 853.415 434.806 862.455 433.032C883.629 428.886 895.334 406.939 901.668 395.099C902.362 393.806 903.149 392.312 903.789 391.206C904.589 390.898 905.349 390.511 906.094 390.018C909.934 392.392 912.094 393.219 914.321 393.206C916.054 393.191 918.654 392.592 921.255 389.779C927.267 383.192 935.441 358.206 935.789 347.926Z" fill="#6750A4"/>
<path d="M328.563 268.913C328.456 269.353 328.43 269.593 328.43 269.593L351.923 272.739L328.923 267.126C328.763 267.886 328.643 268.486 328.563 268.913Z" fill="white"/>
<path d="M887.055 322.939L885.161 316.486H885.136L853.388 208.952L851.548 171.739L875.588 254.633C876.016 256.126 877.456 256.846 878.803 256.246L878.843 256.232L901.775 329.246C895.641 326.406 890.055 324.126 887.055 322.939ZM839.523 181.659C837.428 182.366 835.161 181.246 834.456 179.153L799.148 74.8725C798.441 72.7792 799.561 70.5125 801.655 69.8059C803.749 69.0859 806.016 70.2192 806.721 72.2992L842.028 176.579C842.736 178.672 841.615 180.939 839.523 181.659ZM760.456 204.926L756.909 203.952C759.695 191.566 769.228 149.179 774.481 125.726L783.881 152.233L760.456 204.926ZM674.456 447.752C674.775 440.726 675.123 432.899 675.481 425.046L717.963 424.739L718.335 417.819L675.789 418.099C676.335 405.472 676.868 393.392 677.215 385.166L716.576 385.046L720.975 447.3L674.456 447.752ZM660.935 333.632C652.921 329.472 648.481 324.872 647.095 323.246C646.881 323.006 646.749 322.712 646.655 322.379C646.601 322.232 646.548 322.072 646.523 321.912L640.881 270.153L632.495 193.206C632.281 191.432 633.695 189.979 635.189 190.219C635.335 190.233 635.481 190.259 635.629 190.313L687.189 210.032C687.548 210.179 687.841 210.406 688.069 210.699L688.161 210.753C688.388 211.086 688.576 211.486 688.655 211.926L697.083 260.659L710.375 337.499C710.469 338.046 710.403 338.579 710.189 339.059C710.123 339.259 710.001 339.432 709.868 339.619L709.761 339.752L709.655 339.859L709.361 340.112L709.041 340.326L708.695 340.472L708.308 340.566C686.268 343.272 670.843 338.792 660.935 333.632ZM633.136 318.939L633.095 319.379C632.641 323.899 628.469 327.179 624.375 325.792C600.441 317.619 571.935 318.379 558.868 319.312L558.508 319.339C558.028 319.326 557.575 319.272 557.136 319.166C554.095 318.499 551.815 315.553 551.909 311.966L554.948 193.086C555.055 188.873 558.201 185.512 561.988 185.579L617.576 186.526C619.843 186.566 621.815 187.872 622.975 189.859C623.268 190.366 623.509 190.899 623.695 191.486C623.868 192.059 624.001 192.659 624.055 193.299L632.749 312.659L633.123 317.979C633.148 318.286 633.148 318.579 633.148 318.872L633.136 318.939ZM545.535 314.766C545.496 316.699 544.776 318.486 543.655 319.859C542.761 320.952 541.601 321.806 540.241 322.219C532.055 324.806 515.776 331.392 504.216 345.566C500.561 350.059 494.375 348.726 492.308 344.112C492.228 343.926 492.148 343.726 492.083 343.539L492.015 343.352V343.299L491.921 343.019L491.895 342.979L491.881 342.886L491.788 342.539V342.486L491.776 342.446L491.735 342.272C491.695 342.072 491.655 341.832 491.641 341.606C491.601 341.312 491.588 340.992 491.588 340.686C491.721 319.712 493.401 288.406 500.028 250.312C502.535 235.952 505.761 220.619 509.856 204.499C510.575 201.632 512.695 199.406 515.308 198.753L534.721 193.806L539.481 192.606C544.136 191.419 548.469 195.392 548.335 200.646L545.535 314.766ZM713.909 347.326L716.083 378.032L677.509 378.126C677.576 376.766 677.428 364.432 677.308 355.019C687.948 356.126 700.469 354.619 713.909 347.326ZM461.041 323.246L430.348 300.352L430.749 295.446L431.935 292.059L468.295 319.046L461.041 323.246ZM442.549 333.992L435.136 325.752C434.443 324.979 433.308 324.979 432.615 325.726L432.015 326.379C424.856 318.126 406.883 297.379 398.561 288.073C401.068 285.819 403.201 283.633 403.201 283.633L426.055 287.526C426.055 287.526 423.361 306.886 425.015 308.006C425.815 308.552 426.948 308.352 427.921 308.019L427.908 309.126L453.095 327.859L442.549 333.992ZM397.163 249.992C397.868 246.352 398.481 242.552 398.921 238.659C399.388 234.539 399.268 230.526 398.788 226.713L423.695 234.739L422.001 253.139L421.481 258.859L395.988 255.646C396.401 253.819 396.788 251.939 397.163 249.992ZM390.189 201.379L426.083 208.553L424.136 229.766L397.868 221.286C395.348 209.739 390.189 201.379 390.189 201.379ZM389.335 249.006C388.975 250.873 388.588 252.779 388.189 254.659L370.295 252.419L371.015 246.673L374.561 218.912L389.576 223.753C390.201 225.939 390.735 228.006 391.136 229.766C391.895 233.246 390.895 240.873 389.335 249.006ZM367.575 210.286C366.549 208.979 364.908 208.366 363.321 208.832L335.841 217.099C332.961 201.846 324.189 187.166 324.189 187.166L382.681 202.326C382.681 202.326 385.416 210.112 387.868 218.059L377.908 214.832C377.935 214.419 377.935 214.006 377.868 213.579C377.469 211.526 375.788 210.006 373.856 209.979L367.575 210.286ZM366.469 246.126L365.815 251.872L361.109 251.286L361.921 245.553L365.868 217.526L366.575 217.006L369.549 218.966L366.469 246.126ZM356.015 244.792C355.761 246.792 355.496 248.726 355.281 250.539L332.895 247.726C333.268 245.886 333.681 243.979 334.083 242.019C334.735 238.939 335.401 235.753 336.095 232.553C336.523 230.566 336.708 228.499 336.735 226.392C346.001 223.086 359.601 218.312 359.388 218.992C359.216 219.606 357.469 233.139 356.015 244.792ZM328.416 269.593C328.416 269.593 328.455 269.352 328.561 268.912C328.641 268.486 328.761 267.899 328.909 267.126L351.909 272.726L328.416 269.593ZM321.708 266.072L318.455 265.752L268.028 260.739C268.028 260.739 271.695 233.353 272.749 221.259C273.815 209.139 265.241 172.659 265.241 172.659L313.121 184.499C313.121 184.499 313.189 184.739 313.295 185.179C313.335 185.313 313.388 185.473 313.428 185.673C313.641 186.433 313.908 187.526 314.281 188.926C314.335 189.139 314.416 189.379 314.469 189.633C314.523 189.873 314.601 190.139 314.655 190.393C314.735 190.646 314.788 190.912 314.868 191.192C315.255 192.659 315.695 194.326 316.148 196.166C316.375 197.059 316.615 197.966 316.856 198.926C316.948 199.273 317.028 199.659 317.121 200.006C317.375 200.939 317.601 201.913 317.868 202.899C318.083 203.779 318.308 204.646 318.535 205.553C318.841 206.793 319.148 208.046 319.469 209.339C319.695 210.233 319.908 211.112 320.136 212.019C320.401 213.152 320.695 214.299 320.961 215.433C321.241 216.659 321.549 217.859 321.841 219.059C322.121 220.286 322.428 221.459 322.695 222.659C322.895 223.526 323.109 224.419 323.295 225.259C323.523 226.219 323.735 227.179 323.961 228.126C324.121 228.846 324.295 229.539 324.443 230.246C324.615 231.032 324.788 231.833 324.948 232.593L324.961 232.633C325.121 233.366 325.281 234.059 325.416 234.753C325.469 235.086 325.548 235.433 325.628 235.766C325.761 236.433 325.895 237.072 326.001 237.686L326.055 237.939C326.308 239.246 326.523 240.446 326.708 241.499L326.776 241.859C326.815 242.113 326.856 242.353 326.883 242.593C326.921 242.819 326.948 243.032 326.988 243.246C327.001 243.459 327.041 243.672 327.068 243.872C327.121 244.219 327.163 244.579 327.189 244.872L327.228 245.339L327.241 245.819C327.508 254.646 321.708 266.072 321.708 266.072ZM427.908 236.099L443.163 241.006L436.015 255.259L433.469 260.352L425.908 259.392L426.388 253.673L427.908 236.099ZM448.189 246.193L449.549 243.459L453.883 245.593L443.549 261.272L442.055 263.526L443.001 260.819L448.189 246.193ZM911.136 333.872L885.881 253.099C887.215 252.432 887.921 250.713 887.456 249.219L837.563 95.2192L837.548 95.1525L837.523 95.1392L825.148 54.5392L818.028 56.5258V56.5525L813.055 57.9392L811.481 50.7792C810.349 45.6058 805.095 43.6192 801.296 46.8992L763.683 79.4192C761.161 81.6192 760.189 85.4458 761.349 88.6725L771.588 117.566C767.243 137.073 755.988 187.246 752.523 202.726L747.721 201.406L747.655 201.379L738.403 242.259L738.375 242.299L732.708 267.366L713.069 311.513L697.296 204.539L627.655 175.006L558.388 173.739L499.201 187.619C499.201 187.619 485.201 256.779 480.308 298.139L449.416 273.153L451.348 267.593L458.749 246.046C460.695 244.993 461.575 242.486 460.776 240.286L460.469 239.446C459.721 237.366 457.695 236.206 455.708 236.699L450.895 237.912C450.588 236.966 449.961 236.152 449.041 235.699C447.628 234.966 446.041 235.393 445.028 236.513L428.321 231.112L430.575 204.846L252.228 166.566C252.228 166.566 253.668 184.913 248.708 197.099C243.749 209.246 224.055 252.059 224.055 252.059L264.856 263.593L310.535 268.819C310.535 268.819 315.216 269.512 320.496 270.366C324.148 270.926 328.121 271.579 331.041 272.086C334.083 272.619 351.163 274.779 369.841 277.086L388.401 281.606C388.401 281.606 388.948 292.832 391.455 292.952C392.216 292.992 393.549 292.166 395.083 291.019C403.228 300.112 421.668 321.326 428.908 329.686L427.948 330.699C427.268 331.433 427.241 332.632 427.921 333.379L433.308 339.339L411.228 352.152C410.681 352.472 410.335 353.059 410.335 353.712L410.321 358.592C410.321 359.592 411.083 360.392 412.001 360.392H413.428L404.496 389.539C404.496 389.539 424.201 400.539 427.481 418.246C430.735 435.872 434.815 441.472 434.815 441.472L441.041 441.419L437.721 416.566L451.601 415.02L450.655 403.354L486.721 397.006L488.201 412.699C488.201 412.699 494.761 343.939 530.815 343.299C558.335 342.832 597.509 360.299 624.016 354.472C627.349 376.606 632.509 412.846 632.308 425.112C632.041 443.059 633.948 450.112 633.948 450.112L615.749 487.967C615.749 487.967 608.895 484.646 607.136 489.032C605.375 493.392 606.761 499.592 606.761 499.592C606.761 499.592 599.789 499.486 598.775 497.687C597.775 495.886 592.469 497.459 592.215 506.566C591.963 515.634 591.736 521.127 591.736 521.127L579.868 525.392L579.803 527.659L580.095 527.646L579.815 536.46L599.055 536.112L609.041 532.526L608.868 522.634L609.296 510.819L621.189 510.634C621.189 510.634 623.896 522.779 626.641 523.459L626.456 528.246L631.215 528.152C631.201 528.486 630.828 537.792 630.828 537.792L644.268 537.539L658.016 531.099L658.456 521.179L660.815 520.032L646.749 518.752L642.296 508.139L664.563 476.512L673.028 474.192C673.161 474.046 673.588 466.046 674.136 454.634L683.296 454.539C682.428 457.206 681.403 459.712 680.229 461.967C679.481 476.859 679.361 476.979 677.349 479.059L676.028 480.432L668.148 482.606L655.123 501.099C662.243 505.354 670.428 507.646 679.335 507.499C699.683 507.179 717.375 494.3 727.868 474.379C748.469 484.074 800.189 494.634 800.189 494.634L797.683 497.366L837.388 496.779L837.456 495.806L832.016 495.886L833.136 480.566L827.375 475.699L817.016 480.779C817.016 480.779 816.749 468.872 814.001 468.127C812.388 467.699 810.375 468.74 808.361 470.432C801.588 467.127 783.721 458.419 777.615 455.486C778.161 453.832 778.148 452.486 778.148 452.486C778.148 452.486 776.523 451.246 774.789 449.926C775.655 448.659 776.588 447.166 777.548 445.46C781.108 438.979 784.749 429.392 785.189 416.592C785.281 413.992 785.321 411.419 785.296 408.872V408.859C785.123 408.539 784.963 408.246 784.828 407.926C783.028 404.02 781.495 399.459 780.136 393.967C777.069 381.632 775.495 367.166 774.123 354.339C773.775 351.272 773.428 348.006 773.041 344.792C770.535 359.006 768.935 369.326 768.308 375.606C767.695 381.526 767.388 387.779 767.055 394.419C765.868 417.606 764.576 443.02 750.108 456.566C752.868 455.886 755.416 455.326 757.229 455.006C758.416 454.806 759.296 454.712 759.708 454.752C760.296 454.832 761.108 454.912 762.001 454.992L771.641 461.126C772.761 460.792 773.683 460.326 774.441 459.779C781.083 462.967 797.881 471.139 804.469 474.339L804.176 474.672C800.975 478.419 796.095 478.139 796.095 478.139L739.789 459.206C739.321 459.339 738.856 459.446 738.416 459.566L738.375 459.592C737.523 459.806 736.721 460.019 736.028 460.206C734.789 460.552 733.856 460.806 733.361 460.926L733.069 461.006L733.001 461.019L733.069 460.886L733.136 460.672C733.215 460.499 733.321 460.232 733.469 459.899C765.136 452.006 760.215 407.952 763.481 375.366C764.535 364.872 768.041 344.646 772.495 321.086C781.136 275.579 793.403 217.379 798.509 193.459L804.641 210.753L845.761 326.739L862.441 328.312L869.629 357.366C869.629 357.366 866.963 353.993 863.896 354.553C860.803 355.113 854.509 366.339 850.695 358.832C846.868 351.299 843.548 351.059 843.548 351.059L823.509 344.593C823.509 344.593 819.921 340.139 819.921 339.779C820.016 339.552 822.775 337.632 822.775 337.632L809.108 325.086L814.456 342.112L810.761 342.992L809.161 340.086L809.803 336.006L798.456 323.166L800.896 336.232L803.335 340.566L800.229 341.846L797.215 337.593L797.588 334.939L787.229 323.619L784.949 321.126L786.881 326.352C786.601 328.872 786.321 331.286 786.095 333.659L772.495 321.086C778.721 328.286 778.229 365.766 784.803 392.219C785.988 397.02 787.416 401.459 789.148 405.3C800.361 429.992 837.095 429.3 861.789 424.459C886.416 419.646 896.441 383.139 900.481 383.126C902.428 383.126 903.868 381.939 905.523 378.939C906.815 379.859 908.136 380.752 909.361 381.552C911.935 383.219 914.109 384.419 915.069 384.419C918.123 384.406 927.616 358.566 927.935 348.472C928.083 344.152 920.215 338.686 911.136 333.872Z" fill="white"/>
<path d="M788.948 310.939C793.803 278.219 799.176 244.432 802.935 221.272L799.615 211.939C793.789 239.579 784.775 282.832 777.895 318.739L780.123 320.792C780.309 319.232 781.083 317.752 782.309 316.752C783.229 316.032 784.281 315.672 785.296 315.672C786.321 315.672 787.321 316.046 788.136 316.752C788.375 314.859 788.655 312.926 788.948 310.939Z" fill="white"/>
<path d="M402.869 392.806L400.309 391.366L401.455 387.606C395.802 384.54 381.962 379.326 358.309 383.62L358.349 390.38C358.349 390.38 398.695 395.833 400.269 434.606C400.335 436.273 400.855 437.886 401.722 439.285C403.402 442.02 406.295 443.646 409.389 443.618L431.909 443.42C430.949 441.966 427.162 435.433 424.122 419.005C421.202 403.22 403.069 392.913 402.869 392.806Z" fill="white"/>
<path d="M360.616 458.3C360.669 467.165 364.856 474.3 369.962 474.246C375.069 474.178 379.189 466.966 379.162 458.112C379.136 449.232 374.962 442.033 369.829 442.086C364.696 442.125 360.562 449.406 360.616 458.3Z" fill="white"/>
<path d="M365.269 487.486C355.935 487.606 348.255 474.646 348.135 458.432C348.002 442.124 355.549 428.806 364.975 428.739C374.389 428.672 382.029 441.832 382.055 458.086C382.095 474.232 374.589 487.352 365.269 487.486ZM422.455 447.099L409.375 447.219C405.095 447.259 401.149 445.032 398.829 441.272C397.615 439.312 396.922 437.059 396.815 434.779C396.162 418.872 388.255 409.032 379.709 403.006C379.469 402.992 379.202 402.992 378.949 402.992C353.402 403.112 334.295 427.124 334.615 458.566C334.935 489.686 354.162 512.619 379.242 512.232C404.175 511.846 423.015 488.499 423.162 457.659C423.189 454.006 422.949 450.499 422.455 447.099Z" fill="white"/>
<path d="M550.656 422.939C543.136 422.993 536.842 430.899 536.616 440.579C536.389 450.219 542.282 457.939 549.749 457.859C557.229 457.779 563.482 449.953 563.749 440.339C564.016 430.687 558.176 422.886 550.656 422.939Z" fill="white"/>
<path d="M541.163 484.672C524.03 484.899 510.417 465.3 510.883 440.807C511.363 416.087 525.95 395.779 543.337 395.712C560.683 395.646 574.15 415.7 573.417 440.259C572.71 464.606 558.257 484.446 541.163 484.672ZM622.417 425.459C622.59 412.459 614.722 388.459 611.669 380.286L608.389 371.499C602.335 366.006 595.43 361.579 587.843 358.552C580.79 355.7 573.177 354.034 565.15 353.766C564.31 353.727 563.47 353.712 562.617 353.712C534.59 353.712 510.11 370.286 496.337 395.499L496.323 395.539C492.523 402.474 489.55 410.046 487.563 418.099C485.737 425.42 484.71 433.087 484.59 441.034C483.87 488.899 516.23 525.3 557.923 524.58C562.083 524.512 566.177 524.074 570.15 523.3L570.31 518.034L582.217 513.766C582.282 511.766 582.35 509.446 582.417 506.779C582.63 498.58 585.643 493.74 588.137 491.112C590.857 488.259 594.23 486.659 597.669 486.566C597.817 486.166 597.963 485.74 598.123 485.312C600.257 480.006 604.99 476.592 610.563 476.3L623.615 449.059C622.977 444.726 622.27 437.194 622.417 425.459Z" fill="white"/>
</svg>
